<mxfile host="app.diagrams.net" modified="2024-03-28T13:16:20.764Z" agent="Mozilla/5.0 (Windows NT 10.0; Win64; x64) AppleWebKit/537.36 (KHTML, like Gecko) Chrome/122.0.0.0 Safari/537.36 Edg/122.0.0.0" etag="8pYbnBRHosB3LlNCpZm8" version="24.2.0" type="github">
  <diagram name="第 1 页" id="c7ig2iOH3oz3cOy5NmBh">
    <mxGraphModel dx="1386" dy="751" grid="1" gridSize="10" guides="1" tooltips="1" connect="1" arrows="1" fold="1" page="1" pageScale="1" pageWidth="827" pageHeight="1169" math="0" shadow="0">
      <root>
        <mxCell id="0" />
        <mxCell id="1" parent="0" />
        <mxCell id="OpGh4lrltSDLGC7K8_In-30" style="edgeStyle=orthogonalEdgeStyle;rounded=0;orthogonalLoop=1;jettySize=auto;html=1;exitX=0.5;exitY=1;exitDx=0;exitDy=0;entryX=0.5;entryY=0;entryDx=0;entryDy=0;" edge="1" parent="1" source="OpGh4lrltSDLGC7K8_In-1" target="OpGh4lrltSDLGC7K8_In-12">
          <mxGeometry relative="1" as="geometry" />
        </mxCell>
        <mxCell id="OpGh4lrltSDLGC7K8_In-1" value="" style="rounded=0;whiteSpace=wrap;html=1;fillColor=#FFE599;" vertex="1" parent="1">
          <mxGeometry x="320" y="140" width="170" height="220" as="geometry" />
        </mxCell>
        <mxCell id="OpGh4lrltSDLGC7K8_In-31" style="edgeStyle=orthogonalEdgeStyle;rounded=0;orthogonalLoop=1;jettySize=auto;html=1;exitX=0.5;exitY=1;exitDx=0;exitDy=0;entryX=0.5;entryY=0;entryDx=0;entryDy=0;" edge="1" parent="1" source="OpGh4lrltSDLGC7K8_In-10" target="OpGh4lrltSDLGC7K8_In-12">
          <mxGeometry relative="1" as="geometry" />
        </mxCell>
        <mxCell id="OpGh4lrltSDLGC7K8_In-33" style="edgeStyle=orthogonalEdgeStyle;rounded=0;orthogonalLoop=1;jettySize=auto;html=1;exitX=0.5;exitY=1;exitDx=0;exitDy=0;entryX=0.5;entryY=0;entryDx=0;entryDy=0;" edge="1" parent="1" source="OpGh4lrltSDLGC7K8_In-10" target="OpGh4lrltSDLGC7K8_In-13">
          <mxGeometry relative="1" as="geometry" />
        </mxCell>
        <mxCell id="OpGh4lrltSDLGC7K8_In-10" value="" style="rounded=0;whiteSpace=wrap;html=1;fillColor=#FFE599;" vertex="1" parent="1">
          <mxGeometry x="544.93" y="140" width="170" height="220" as="geometry" />
        </mxCell>
        <mxCell id="OpGh4lrltSDLGC7K8_In-32" style="edgeStyle=orthogonalEdgeStyle;rounded=0;orthogonalLoop=1;jettySize=auto;html=1;exitX=0.5;exitY=1;exitDx=0;exitDy=0;entryX=0.5;entryY=0;entryDx=0;entryDy=0;" edge="1" parent="1" source="OpGh4lrltSDLGC7K8_In-11" target="OpGh4lrltSDLGC7K8_In-12">
          <mxGeometry relative="1" as="geometry" />
        </mxCell>
        <mxCell id="OpGh4lrltSDLGC7K8_In-34" style="edgeStyle=orthogonalEdgeStyle;rounded=0;orthogonalLoop=1;jettySize=auto;html=1;exitX=0.5;exitY=1;exitDx=0;exitDy=0;entryX=0.5;entryY=0;entryDx=0;entryDy=0;" edge="1" parent="1" source="OpGh4lrltSDLGC7K8_In-11" target="OpGh4lrltSDLGC7K8_In-14">
          <mxGeometry relative="1" as="geometry" />
        </mxCell>
        <mxCell id="OpGh4lrltSDLGC7K8_In-11" value="" style="rounded=0;whiteSpace=wrap;html=1;fillColor=#FFE599;" vertex="1" parent="1">
          <mxGeometry x="770" y="140" width="170" height="220" as="geometry" />
        </mxCell>
        <mxCell id="OpGh4lrltSDLGC7K8_In-12" value="" style="rounded=0;whiteSpace=wrap;html=1;fillColor=#FFE599;" vertex="1" parent="1">
          <mxGeometry x="320" y="410" width="170" height="120" as="geometry" />
        </mxCell>
        <mxCell id="OpGh4lrltSDLGC7K8_In-13" value="" style="rounded=0;whiteSpace=wrap;html=1;fillColor=#FFE599;" vertex="1" parent="1">
          <mxGeometry x="545" y="410" width="170" height="120" as="geometry" />
        </mxCell>
        <mxCell id="OpGh4lrltSDLGC7K8_In-14" value="" style="rounded=0;whiteSpace=wrap;html=1;fillColor=#FFE599;" vertex="1" parent="1">
          <mxGeometry x="770" y="410" width="170" height="120" as="geometry" />
        </mxCell>
        <mxCell id="OpGh4lrltSDLGC7K8_In-15" value="节点A" style="text;html=1;align=center;verticalAlign=middle;whiteSpace=wrap;rounded=0;" vertex="1" parent="1">
          <mxGeometry x="320" y="140" width="60" height="30" as="geometry" />
        </mxCell>
        <mxCell id="OpGh4lrltSDLGC7K8_In-16" value="节点B" style="text;html=1;align=center;verticalAlign=middle;whiteSpace=wrap;rounded=0;" vertex="1" parent="1">
          <mxGeometry x="544.9300000000001" y="140" width="60" height="30" as="geometry" />
        </mxCell>
        <mxCell id="OpGh4lrltSDLGC7K8_In-17" value="节点C" style="text;html=1;align=center;verticalAlign=middle;whiteSpace=wrap;rounded=0;" vertex="1" parent="1">
          <mxGeometry x="770" y="140" width="60" height="30" as="geometry" />
        </mxCell>
        <mxCell id="OpGh4lrltSDLGC7K8_In-18" value="节点D" style="text;html=1;align=center;verticalAlign=middle;whiteSpace=wrap;rounded=0;" vertex="1" parent="1">
          <mxGeometry x="320" y="410" width="60" height="30" as="geometry" />
        </mxCell>
        <mxCell id="OpGh4lrltSDLGC7K8_In-19" value="节点E" style="text;html=1;align=center;verticalAlign=middle;whiteSpace=wrap;rounded=0;" vertex="1" parent="1">
          <mxGeometry x="545" y="410" width="60" height="30" as="geometry" />
        </mxCell>
        <mxCell id="OpGh4lrltSDLGC7K8_In-20" value="节点F" style="text;html=1;align=center;verticalAlign=middle;whiteSpace=wrap;rounded=0;" vertex="1" parent="1">
          <mxGeometry x="770" y="410" width="60" height="30" as="geometry" />
        </mxCell>
        <mxCell id="OpGh4lrltSDLGC7K8_In-21" value="FE&lt;div&gt;(Master)&lt;/div&gt;" style="rounded=1;whiteSpace=wrap;html=1;" vertex="1" parent="1">
          <mxGeometry x="340" y="180" width="120" height="60" as="geometry" />
        </mxCell>
        <mxCell id="OpGh4lrltSDLGC7K8_In-22" value="FE&lt;div&gt;(Follower)&lt;/div&gt;" style="rounded=1;whiteSpace=wrap;html=1;" vertex="1" parent="1">
          <mxGeometry x="570" y="180" width="120" height="60" as="geometry" />
        </mxCell>
        <mxCell id="OpGh4lrltSDLGC7K8_In-23" value="FE&lt;div&gt;(Follower)&lt;/div&gt;" style="rounded=1;whiteSpace=wrap;html=1;" vertex="1" parent="1">
          <mxGeometry x="795" y="180" width="120" height="60" as="geometry" />
        </mxCell>
        <mxCell id="OpGh4lrltSDLGC7K8_In-24" value="BE" style="rounded=1;whiteSpace=wrap;html=1;" vertex="1" parent="1">
          <mxGeometry x="345" y="450" width="120" height="60" as="geometry" />
        </mxCell>
        <mxCell id="OpGh4lrltSDLGC7K8_In-25" value="BE" style="rounded=1;whiteSpace=wrap;html=1;" vertex="1" parent="1">
          <mxGeometry x="570" y="450" width="120" height="60" as="geometry" />
        </mxCell>
        <mxCell id="OpGh4lrltSDLGC7K8_In-26" value="BE" style="rounded=1;whiteSpace=wrap;html=1;" vertex="1" parent="1">
          <mxGeometry x="795" y="450" width="120" height="60" as="geometry" />
        </mxCell>
        <mxCell id="OpGh4lrltSDLGC7K8_In-35" value="" style="endArrow=classic;startArrow=classic;html=1;rounded=0;" edge="1" parent="1">
          <mxGeometry width="50" height="50" relative="1" as="geometry">
            <mxPoint x="491" y="469.5" as="sourcePoint" />
            <mxPoint x="541" y="469.5" as="targetPoint" />
          </mxGeometry>
        </mxCell>
        <mxCell id="OpGh4lrltSDLGC7K8_In-36" value="" style="endArrow=classic;startArrow=classic;html=1;rounded=0;" edge="1" parent="1">
          <mxGeometry width="50" height="50" relative="1" as="geometry">
            <mxPoint x="718" y="469.5" as="sourcePoint" />
            <mxPoint x="768" y="469.5" as="targetPoint" />
          </mxGeometry>
        </mxCell>
        <mxCell id="OpGh4lrltSDLGC7K8_In-38" value="BE" style="rounded=1;whiteSpace=wrap;html=1;" vertex="1" parent="1">
          <mxGeometry x="340" y="280" width="120" height="60" as="geometry" />
        </mxCell>
        <mxCell id="OpGh4lrltSDLGC7K8_In-39" value="BE" style="rounded=1;whiteSpace=wrap;html=1;" vertex="1" parent="1">
          <mxGeometry x="569.9300000000001" y="280" width="120" height="60" as="geometry" />
        </mxCell>
        <mxCell id="OpGh4lrltSDLGC7K8_In-40" value="BE" style="rounded=1;whiteSpace=wrap;html=1;" vertex="1" parent="1">
          <mxGeometry x="795" y="280" width="120" height="60" as="geometry" />
        </mxCell>
        <mxCell id="OpGh4lrltSDLGC7K8_In-41" value="" style="endArrow=classic;startArrow=classic;html=1;rounded=0;entryX=0;entryY=0.5;entryDx=0;entryDy=0;" edge="1" parent="1">
          <mxGeometry width="50" height="50" relative="1" as="geometry">
            <mxPoint x="470" y="209.5" as="sourcePoint" />
            <mxPoint x="564" y="210" as="targetPoint" />
            <Array as="points">
              <mxPoint x="520" y="209" />
            </Array>
          </mxGeometry>
        </mxCell>
        <mxCell id="OpGh4lrltSDLGC7K8_In-42" value="" style="endArrow=classic;startArrow=classic;html=1;rounded=0;entryX=0;entryY=0.5;entryDx=0;entryDy=0;" edge="1" parent="1">
          <mxGeometry width="50" height="50" relative="1" as="geometry">
            <mxPoint x="480" y="219.5" as="sourcePoint" />
            <mxPoint x="574" y="220" as="targetPoint" />
            <Array as="points">
              <mxPoint x="530" y="219" />
            </Array>
          </mxGeometry>
        </mxCell>
      </root>
    </mxGraphModel>
  </diagram>
</mxfile>
